<svg width="860" height="360" viewBox="0 0 860 360" xmlns="http://www.w3.org/2000/svg" font-family="'Courier New', Courier, monospace">
  <defs>
    <style>
      /* ── Scanline sweep ── */
      .scanline { animation: scan 4s linear infinite; }
      @keyframes scan {
        0%   { transform: translateY(-10px); opacity: 0; }
        5%   { opacity: 0.07; }
        95%  { opacity: 0.05; }
        100% { transform: translateY(370px); opacity: 0; }
      }

      /* ── Cursor blink ── */
      .blink { animation: blink 1.1s step-end infinite; }
      @keyframes blink { 0%,100%{opacity:1} 50%{opacity:0} }

      /* ── Row fade-in ── */
      .row { opacity: 0; animation: fadein 0.5s ease forwards; }
      .row:nth-child(1) { animation-delay: 0.3s; }
      .row:nth-child(2) { animation-delay: 0.6s; }
      .row:nth-child(3) { animation-delay: 0.9s; }
      .row:nth-child(4) { animation-delay: 1.2s; }
      .row:nth-child(5) { animation-delay: 1.5s; }
      .row:nth-child(6) { animation-delay: 1.8s; }
      .row:nth-child(7) { animation-delay: 2.1s; }
      .row:nth-child(8) { animation-delay: 2.4s; }
      @keyframes fadein {
        from { opacity:0; transform:translateX(-8px); }
        to   { opacity:1; transform:translateX(0); }
      }

      /* ── Status bar pulse ── */
      .pulse-bar { animation: pulsebar 2.2s ease-in-out infinite; }
      @keyframes pulsebar { 0%,100%{opacity:.9} 50%{opacity:.35} }

      /* ── Title glitch ── */
      .glitch { animation: glitch 9s ease-in-out infinite; }
      @keyframes glitch {
        0%,93%,100%{transform:translate(0,0);opacity:1;filter:none}
        94%{transform:translate(-3px,1px);opacity:.8;filter:hue-rotate(90deg)}
        96%{transform:translate(3px,-1px);opacity:.9;filter:hue-rotate(-40deg)}
        97%{transform:translate(0,0);opacity:1;filter:none}
      }

      /* ── Corner brackets ── */
      .corner { animation: cblink 3s ease-in-out infinite; }
      @keyframes cblink { 0%,75%,100%{opacity:1} 80%{opacity:.2} 85%{opacity:1} 88%{opacity:.3} }

      /* ── Pixel ticker ── */
      .px { animation: pixelanim 3.5s linear infinite; }
      .px2 { animation: pixelanim 3.5s linear infinite reverse; }
      @keyframes pixelanim {
        0%{opacity:.15} 30%{opacity:.55} 60%{opacity:.2} 85%{opacity:.6} 100%{opacity:.15}
      }

      /* ── Decorative side bar pulse ── */
      .sidebar { animation: sidepulse 2.8s ease-in-out infinite; }
      @keyframes sidepulse {
        0%,100%{opacity:.8} 50%{opacity:.2}
      }

      /* ── Badge tags ── */
      .tag { opacity: 0; animation: tagfade 0.4s ease forwards; }
      .tag:nth-child(1) { animation-delay: 2.8s; }
      .tag:nth-child(2) { animation-delay: 3.0s; }
      .tag:nth-child(3) { animation-delay: 3.2s; }
      .tag:nth-child(4) { animation-delay: 3.4s; }
      .tag:nth-child(5) { animation-delay: 3.6s; }
      @keyframes tagfade {
        from{opacity:0;transform:translateY(4px)}
        to{opacity:1;transform:translateY(0)}
      }

      /* ── Footer fade ── */
      .footer-text { opacity:0; animation: fadein 0.5s ease 3.8s forwards; }

      /* ── Hex avatar orbit ── */
      .orbit { animation: orbitring 12s linear infinite; transform-origin: 790px 180px; }
      @keyframes orbitring {
        from { transform: rotate(0deg); }
        to   { transform: rotate(360deg); }
      }

      /* ── Hex avatar flicker ── */
      .hexflicker { animation: hexf 6s ease-in-out infinite; }
      @keyframes hexf {
        0%,90%,100%{opacity:1} 92%{opacity:.6} 95%{opacity:1} 97%{opacity:.75} 98%{opacity:1}
      }
    </style>

    <clipPath id="mainclip">
      <rect x="4" y="4" width="852" height="352" rx="10"/>
    </clipPath>

    <!-- Grid pattern -->
    <pattern id="grid" width="36" height="36" patternUnits="userSpaceOnUse">
      <path d="M 36 0 L 0 0 0 36" fill="none" stroke="#00ffff" stroke-width="0.2" opacity="0.08"/>
    </pattern>

    <!-- Radial gradient for avatar area -->
    <radialGradient id="avatarglow" cx="50%" cy="50%" r="50%">
      <stop offset="0%" stop-color="#00ffff" stop-opacity="0.12"/>
      <stop offset="100%" stop-color="#00ffff" stop-opacity="0"/>
    </radialGradient>

    <!-- Glow filter -->
    <filter id="glow" x="-20%" y="-20%" width="140%" height="140%">
      <feGaussianBlur stdDeviation="2.5" result="blur"/>
      <feMerge><feMergeNode in="blur"/><feMergeNode in="SourceGraphic"/></feMerge>
    </filter>

    <!-- Soft glow filter -->
    <filter id="softglow" x="-30%" y="-30%" width="160%" height="160%">
      <feGaussianBlur stdDeviation="4" result="blur"/>
      <feMerge><feMergeNode in="blur"/><feMergeNode in="SourceGraphic"/></feMerge>
    </filter>
  </defs>

  <!-- ── Background ── -->
  <rect width="860" height="360" rx="14" fill="#020c0c"/>
  <rect width="860" height="360" rx="14" fill="url(#grid)"/>

  <!-- Subtle gradient overlay left-side -->
  <rect x="0" y="0" width="430" height="360" rx="14" fill="url(#avatarglow)" opacity="0.3"/>

  <!-- ── Border frames ── -->
  <rect x="2"  y="2"  width="856" height="356" rx="12" fill="none" stroke="#00ffff" stroke-width="1.4" opacity="0.55"/>
  <rect x="6"  y="6"  width="848" height="348" rx="9"  fill="none" stroke="#00ffff" stroke-width="0.35" opacity="0.18"/>

  <!-- ── Corner brackets ── -->
  <g class="corner" fill="#00ffff" filter="url(#glow)">
    <!-- TL -->
    <rect x="10" y="10" width="18" height="2.5"/>
    <rect x="10" y="10" width="2.5" height="18"/>
    <!-- TR -->
    <rect x="832" y="10" width="18" height="2.5"/>
    <rect x="847.5" y="10" width="2.5" height="18"/>
    <!-- BL -->
    <rect x="10" y="347.5" width="18" height="2.5"/>
    <rect x="10" y="332" width="2.5" height="18"/>
    <!-- BR -->
    <rect x="832" y="347.5" width="18" height="2.5"/>
    <rect x="847.5" y="332" width="2.5" height="18"/>
  </g>

  <!-- ── Left accent bar ── -->
  <rect x="0" y="70" width="3" height="220" rx="1.5" fill="#00ffff" class="sidebar"/>
  <rect x="857" y="70" width="3" height="220" rx="1.5" fill="#00ffff" class="sidebar"/>

  <g clip-path="url(#mainclip)">

    <!-- ── TOP PIXEL TICKER ── -->
    <g class="px">
      <rect x="30"  y="23" width="32" height="12" rx="2" fill="#00ffff" opacity="0.3"/>
      <rect x="70"  y="23" width="32" height="12" rx="2" fill="#00ffff" opacity="0.3"/>
      <rect x="110" y="23" width="32" height="12" rx="2" fill="#00ffff" opacity="0.3"/>
      <rect x="150" y="23" width="32" height="12" rx="2" fill="#00ffff" opacity="0.3"/>
      <rect x="190" y="23" width="32" height="12" rx="2" fill="#00ffff" opacity="0.3"/>
      <rect x="230" y="23" width="32" height="12" rx="2" fill="#00ffff" opacity="0.3"/>
      <rect x="270" y="23" width="32" height="12" rx="2" fill="#00ffff" opacity="0.3"/>
      <rect x="310" y="23" width="32" height="12" rx="2" fill="#00ffff" opacity="0.3"/>
      <!-- right side -->
      <rect x="520" y="23" width="32" height="12" rx="2" fill="#00ffff" opacity="0.3"/>
      <rect x="560" y="23" width="32" height="12" rx="2" fill="#00ffff" opacity="0.3"/>
      <rect x="600" y="23" width="32" height="12" rx="2" fill="#00ffff" opacity="0.3"/>
      <rect x="640" y="23" width="32" height="12" rx="2" fill="#00ffff" opacity="0.3"/>
      <rect x="680" y="23" width="32" height="12" rx="2" fill="#00ffff" opacity="0.3"/>
      <rect x="720" y="23" width="32" height="12" rx="2" fill="#00ffff" opacity="0.3"/>
      <rect x="760" y="23" width="32" height="12" rx="2" fill="#00ffff" opacity="0.3"/>
      <rect x="800" y="23" width="32" height="12" rx="2" fill="#00ffff" opacity="0.3"/>
    </g>

    <!-- ── TITLE BAR ── -->
    <g class="glitch" filter="url(#glow)">
      <text x="430" y="36" text-anchor="middle" fill="#00ffff" font-size="12.5" letter-spacing="5" opacity="0.95" font-weight="bold">SYSTEM IDENTITY CARD  //  v3.1.0  //  CLASSIFIED</text>
    </g>

    <!-- ── TOP PIXEL TICKER 2 ── -->
    <g class="px2">
      <rect x="30"  y="44" width="32" height="12" rx="2" fill="#00ffff" opacity="0.2"/>
      <rect x="70"  y="44" width="32" height="12" rx="2" fill="#00ffff" opacity="0.2"/>
      <rect x="110" y="44" width="32" height="12" rx="2" fill="#00ffff" opacity="0.2"/>
      <rect x="150" y="44" width="32" height="12" rx="2" fill="#00ffff" opacity="0.2"/>
      <rect x="190" y="44" width="32" height="12" rx="2" fill="#00ffff" opacity="0.2"/>
      <rect x="230" y="44" width="32" height="12" rx="2" fill="#00ffff" opacity="0.2"/>
      <rect x="270" y="44" width="32" height="12" rx="2" fill="#00ffff" opacity="0.2"/>
      <rect x="310" y="44" width="32" height="12" rx="2" fill="#00ffff" opacity="0.2"/>
      <rect x="520" y="44" width="32" height="12" rx="2" fill="#00ffff" opacity="0.2"/>
      <rect x="560" y="44" width="32" height="12" rx="2" fill="#00ffff" opacity="0.2"/>
      <rect x="600" y="44" width="32" height="12" rx="2" fill="#00ffff" opacity="0.2"/>
      <rect x="640" y="44" width="32" height="12" rx="2" fill="#00ffff" opacity="0.2"/>
      <rect x="680" y="44" width="32" height="12" rx="2" fill="#00ffff" opacity="0.2"/>
      <rect x="720" y="44" width="32" height="12" rx="2" fill="#00ffff" opacity="0.2"/>
      <rect x="760" y="44" width="32" height="12" rx="2" fill="#00ffff" opacity="0.2"/>
      <rect x="800" y="44" width="32" height="12" rx="2" fill="#00ffff" opacity="0.2"/>
    </g>

    <!-- ── DIVIDER ── -->
    <line x1="28" y1="66" x2="832" y2="66" stroke="#00ffff" stroke-width="0.6" opacity="0.35"/>

    <!-- ══════════════════════════════════════════════════════
         LEFT COLUMN — DATA FIELDS
    ══════════════════════════════════════════════════════ -->

    <!-- Section label -->
    <text x="40" y="92" fill="#00ffff" opacity="0.35" font-size="10" letter-spacing="3">[ IDENTITY RECORD ]</text>

    <g>
      <!-- NAME -->
      <g class="row">
        <text x="48"  y="116" fill="#00ffff" opacity="0.55" font-size="12.5" letter-spacing="1">NAME</text>
        <text x="178" y="116" fill="#00ffff" opacity="0.4" font-size="12.5">──▶</text>
        <text x="232" y="116" fill="#e0ffff" font-size="14" font-weight="bold" letter-spacing="1.5" filter="url(#softglow)">Sathwik Shetty</text>
      </g>
      <!-- ROLE -->
      <g class="row">
        <text x="48"  y="138" fill="#00ffff" opacity="0.55" font-size="12.5" letter-spacing="1">ROLE</text>
        <text x="178" y="138" fill="#00ffff" opacity="0.4" font-size="12.5">──▶</text>
        <text x="232" y="138" fill="#e0ffff" font-size="12.5">CS Engineer  ·  Product Dev  ·  Mentor</text>
      </g>
      <!-- LOCATION -->
      <g class="row">
        <text x="48"  y="160" fill="#00ffff" opacity="0.55" font-size="12.5" letter-spacing="1">LOCATION</text>
        <text x="178" y="160" fill="#00ffff" opacity="0.4" font-size="12.5">──▶</text>
        <text x="232" y="160" fill="#e0ffff" font-size="12.5">Mangaluru, Karnataka, India 🇮🇳</text>
      </g>
      <!-- INSTITUTION -->
      <g class="row">
        <text x="48"  y="182" fill="#00ffff" opacity="0.55" font-size="12.5" letter-spacing="1">INSTITUTION</text>
        <text x="178" y="182" fill="#00ffff" opacity="0.4" font-size="12.5">──▶</text>
        <text x="232" y="182" fill="#e0ffff" font-size="12.5">Sahyadri College of Engineering</text>
      </g>
      <!-- STATUS -->
      <g class="row">
        <text x="48"  y="204" fill="#00ffff" opacity="0.55" font-size="12.5" letter-spacing="1">STATUS</text>
        <text x="178" y="204" fill="#00ffff" opacity="0.4" font-size="12.5">──▶</text>
        <rect x="232" y="192" width="155" height="16" rx="3" fill="#00ffff" class="pulse-bar" opacity="0.85"/>
        <text x="395" y="204" fill="#00ff88" font-size="12.5" font-weight="bold">  ◉ ONLINE &amp; BUILDING</text>
      </g>
      <!-- FUNDING -->
      <g class="row">
        <text x="48"  y="226" fill="#00ffff" opacity="0.55" font-size="12.5" letter-spacing="1">FUNDING</text>
        <text x="178" y="226" fill="#00ffff" opacity="0.4" font-size="12.5">──▶</text>
        <text x="232" y="226" fill="#ff6e96" font-size="12.5" font-weight="bold">₹16.5L MSME Grant  ·  AeroWave</text>
      </g>
      <!-- CORE STACK -->
      <g class="row">
        <text x="48"  y="248" fill="#00ffff" opacity="0.55" font-size="12.5" letter-spacing="1">CORE STACK</text>
        <text x="178" y="248" fill="#00ffff" opacity="0.4" font-size="12.5">──▶</text>
        <text x="232" y="248" fill="#e0ffff" font-size="12.5">AI · RAG · OpenCV · IoT · ROS · Full-Stack</text>
      </g>
      <!-- MISSION -->
      <g class="row">
        <text x="48"  y="270" fill="#00ffff" opacity="0.55" font-size="12.5" letter-spacing="1">MISSION</text>
        <text x="178" y="270" fill="#00ffff" opacity="0.4" font-size="12.5">──▶</text>
        <text x="232" y="270" fill="#e0ffff" font-size="12.5">Merge AI × Hardware × Software for impact</text>
      </g>
    </g>

    <!-- ── SKILL TAGS ── -->
    <g>
      <g class="tag">
        <rect x="48" y="286" width="62" height="18" rx="3" fill="#00ffff" opacity="0.12" stroke="#00ffff" stroke-width="0.6" stroke-opacity="0.5"/>
        <text x="79" y="298.5" text-anchor="middle" fill="#00ffff" font-size="10" letter-spacing="0.5">LangChain</text>
      </g>
      <g class="tag">
        <rect x="118" y="286" width="52" height="18" rx="3" fill="#00ffff" opacity="0.12" stroke="#00ffff" stroke-width="0.6" stroke-opacity="0.5"/>
        <text x="144" y="298.5" text-anchor="middle" fill="#00ffff" font-size="10" letter-spacing="0.5">OpenCV</text>
      </g>
      <g class="tag">
        <rect x="178" y="286" width="44" height="18" rx="3" fill="#ff6e96" opacity="0.12" stroke="#ff6e96" stroke-width="0.6" stroke-opacity="0.5"/>
        <text x="200" y="298.5" text-anchor="middle" fill="#ff6e96" font-size="10" letter-spacing="0.5">ROS</text>
      </g>
      <g class="tag">
        <rect x="230" y="286" width="68" height="18" rx="3" fill="#00ffff" opacity="0.12" stroke="#00ffff" stroke-width="0.6" stroke-opacity="0.5"/>
        <text x="264" y="298.5" text-anchor="middle" fill="#00ffff" font-size="10" letter-spacing="0.5">Robotics</text>
      </g>
      <g class="tag">
        <rect x="306" y="286" width="88" height="18" rx="3" fill="#ff6e96" opacity="0.12" stroke="#ff6e96" stroke-width="0.6" stroke-opacity="0.5"/>
        <text x="350" y="298.5" text-anchor="middle" fill="#ff6e96" font-size="10" letter-spacing="0.5">Rocket Avionics</text>
      </g>
    </g>

    <!-- ── VERTICAL DIVIDER ── -->
    <line x1="550" y1="70" x2="550" y2="320" stroke="#00ffff" stroke-width="0.5" opacity="0.25"/>

    <!-- ══════════════════════════════════════════════════════
         RIGHT COLUMN — HEX AVATAR + STATS
    ══════════════════════════════════════════════════════ -->

    <!-- Glow circle behind avatar -->
    <circle cx="705" cy="178" r="85" fill="none" stroke="#00ffff" stroke-width="0.4" stroke-dasharray="3,7" opacity="0.35"/>
    <circle cx="705" cy="178" r="68" fill="#00ffff" opacity="0.03"/>

    <!-- Orbit dot -->
    <g class="orbit">
      <circle cx="705" cy="93" r="4" fill="#ff6e96" opacity="0.85" filter="url(#glow)"/>
    </g>

    <!-- Hexagon avatar frame -->
    <g class="hexflicker" filter="url(#softglow)">
      <!-- Hex shape clipped by polygon -->
      <polygon points="705,108 755,136 755,192 705,220 655,192 655,136" fill="#030f10" stroke="#00ffff" stroke-width="1.8" opacity="0.9"/>
      <!-- Inner hex border -->
      <polygon points="705,114 749,140 749,189 705,214 661,189 661,140" fill="none" stroke="#00ffff" stroke-width="0.5" opacity="0.3"/>
      <!-- Avatar initials -->
      <text x="705" y="172" text-anchor="middle" fill="#00ffff" font-size="36" font-weight="bold" opacity="0.9" letter-spacing="-1">SS</text>
      <text x="705" y="192" text-anchor="middle" fill="#00ffff" font-size="10" opacity="0.5" letter-spacing="3">SATHWIK</text>
    </g>

    <!-- Section label -->
    <text x="580" y="92" fill="#00ffff" opacity="0.35" font-size="10" letter-spacing="3">[ ACHIEVEMENT LOG ]</text>

    <!-- Stats block -->
    <g opacity="0" style="animation: fadein 0.5s ease 2.6s forwards;">
      <!-- Stat 1 -->
      <text x="580" y="120" fill="#00ffff" opacity="0.5" font-size="11" letter-spacing="1">PATENT STATUS</text>
      <text x="580" y="134" fill="#e0ffff" font-size="11.5">Multiple Filings  ·  National Recognition</text>

      <!-- Divider mini -->
      <line x1="580" y1="144" x2="830" y2="144" stroke="#00ffff" stroke-width="0.4" opacity="0.2"/>

      <!-- Stat 2 -->
      <text x="580" y="160" fill="#00ffff" opacity="0.5" font-size="11" letter-spacing="1">AEROSPACE</text>
      <text x="580" y="174" fill="#e0ffff" font-size="11.5">Agnihotri Aerospace  ·  Avionics Design</text>

      <line x1="580" y1="184" x2="830" y2="184" stroke="#00ffff" stroke-width="0.4" opacity="0.2"/>

      <!-- Stat 3 -->
      <text x="580" y="200" fill="#00ffff" opacity="0.5" font-size="11" letter-spacing="1">EDTECH</text>
      <text x="580" y="214" fill="#e0ffff" font-size="11.5">LMS Platform  ·  Dexes Edtech</text>

      <line x1="580" y1="224" x2="830" y2="224" stroke="#00ffff" stroke-width="0.4" opacity="0.2"/>

      <!-- Stat 4 -->
      <text x="580" y="240" fill="#00ffff" opacity="0.5" font-size="11" letter-spacing="1">COMPETITION BOTS</text>
      <text x="580" y="254" fill="#e0ffff" font-size="11.5">Soccer  ·  Sumo  ·  Humanoid  ·  Line Follower</text>

      <line x1="580" y1="264" x2="830" y2="264" stroke="#00ffff" stroke-width="0.4" opacity="0.2"/>

      <!-- Stat 5 -->
      <text x="580" y="280" fill="#00ffff" opacity="0.5" font-size="11" letter-spacing="1">CLEARANCE</text>
      <rect x="580" y="286" width="110" height="16" rx="3" fill="#ff6e96" opacity="0.18" stroke="#ff6e96" stroke-width="0.6" stroke-opacity="0.6"/>
      <text x="635" y="297" text-anchor="middle" fill="#ff6e96" font-size="10.5" font-weight="bold" letter-spacing="1">LEVEL BUILDER</text>
    </g>

    <!-- ── BOTTOM DIVIDER ── -->
    <line x1="28" y1="318" x2="832" y2="318" stroke="#00ffff" stroke-width="0.5" opacity="0.3"/>

    <!-- ── BOTTOM PIXEL TICKER ── -->
    <g class="px2">
      <rect x="30"  y="328" width="32" height="12" rx="2" fill="#00ffff" opacity="0.18"/>
      <rect x="70"  y="328" width="32" height="12" rx="2" fill="#00ffff" opacity="0.18"/>
      <rect x="110" y="328" width="32" height="12" rx="2" fill="#00ffff" opacity="0.18"/>
      <rect x="150" y="328" width="32" height="12" rx="2" fill="#00ffff" opacity="0.18"/>
      <rect x="190" y="328" width="32" height="12" rx="2" fill="#00ffff" opacity="0.18"/>
      <rect x="540" y="328" width="32" height="12" rx="2" fill="#00ffff" opacity="0.18"/>
      <rect x="580" y="328" width="32" height="12" rx="2" fill="#00ffff" opacity="0.18"/>
      <rect x="620" y="328" width="32" height="12" rx="2" fill="#00ffff" opacity="0.18"/>
      <rect x="660" y="328" width="32" height="12" rx="2" fill="#00ffff" opacity="0.18"/>
      <rect x="700" y="328" width="32" height="12" rx="2" fill="#00ffff" opacity="0.18"/>
      <rect x="740" y="328" width="32" height="12" rx="2" fill="#00ffff" opacity="0.18"/>
      <rect x="780" y="328" width="32" height="12" rx="2" fill="#00ffff" opacity="0.18"/>
      <rect x="820" y="328" width="12" height="12" rx="2" fill="#00ffff" opacity="0.18"/>
    </g>

    <!-- ── FOOTER STATUS ── -->
    <text class="footer-text" x="350" y="347" text-anchor="middle" fill="#00ffff" opacity="0.4" font-size="10.5" letter-spacing="1.5">[ SYS ]  ALL SYSTEMS NOMINAL  ·  UPTIME: ∞  ·  NEXT BUILD: LOADING</text>
    <text class="blink" x="648" y="347" fill="#00ffff" opacity="0.7" font-size="11">█</text>

    <!-- ── SCANLINE ── -->
    <rect class="scanline" x="4" y="0" width="852" height="8" fill="#00ffff" opacity="0.04"/>

  </g>
</svg>
